<mxfile host="drawio-plugin" modified="2024-03-26T16:30:03.109Z" agent="5.0 (Windows NT 10.0; Win64; x64) AppleWebKit/537.36 (KHTML, like Gecko) Chrome/111.0.0.0 Safari/537.36" etag="yA0rQScCqwvE-ItAj2G1" version="20.5.3" type="embed" pages="2"><diagram id="23iRSUPoRavnBvh4doch" name="Page-1"><mxGraphModel dx="1377" dy="730" grid="1" gridSize="10" guides="1" tooltips="1" connect="1" arrows="1" fold="1" page="1" pageScale="1" pageWidth="1654" pageHeight="1169" math="0" shadow="0"><root><mxCell id="0"/><mxCell id="1" parent="0"/><mxCell id="2" value="LocalFoody" style="swimlane;whiteSpace=wrap;html=1;" parent="1" vertex="1"><mxGeometry x="280" y="240" width="240" height="280" as="geometry"/></mxCell><mxCell id="3" style="edgeStyle=orthogonalEdgeStyle;rounded=0;orthogonalLoop=1;jettySize=auto;html=1;" parent="2" source="4" target="5" edge="1"><mxGeometry relative="1" as="geometry"/></mxCell><mxCell id="4" value="User" style="shape=umlActor;verticalLabelPosition=bottom;verticalAlign=top;html=1;outlineConnect=0;" parent="2" vertex="1"><mxGeometry x="20" y="60" width="30" height="60" as="geometry"/></mxCell><mxCell id="5" value="Product&lt;div&gt;Code for Order&lt;/div&gt;" style="shape=note;whiteSpace=wrap;html=1;backgroundOutline=1;darkOpacity=0.05;" parent="2" vertex="1"><mxGeometry x="110" y="40" width="110" height="100" as="geometry"/></mxCell><mxCell id="6" style="edgeStyle=orthogonalEdgeStyle;rounded=0;orthogonalLoop=1;jettySize=auto;html=1;" parent="2" source="7" target="4" edge="1"><mxGeometry relative="1" as="geometry"/></mxCell><mxCell id="7" value="Orders from Post" style="shape=note;whiteSpace=wrap;html=1;backgroundOutline=1;darkOpacity=0.05;" parent="2" vertex="1"><mxGeometry x="110" y="150" width="110" height="100" as="geometry"/></mxCell><mxCell id="8" value="SocialMedia" style="swimlane;whiteSpace=wrap;html=1;" parent="1" vertex="1"><mxGeometry x="600" y="240" width="520" height="280" as="geometry"/></mxCell><mxCell id="9" value="REST API:&amp;nbsp;&lt;div&gt;Create a Post on Social Media platform&lt;/div&gt;" style="rounded=1;whiteSpace=wrap;html=1;" parent="8" vertex="1"><mxGeometry x="40" y="50" width="160" height="80" as="geometry"/></mxCell><mxCell id="10" value="Run Job to get content from Comment Section" style="rounded=1;whiteSpace=wrap;html=1;" parent="8" vertex="1"><mxGeometry x="320" y="50" width="160" height="80" as="geometry"/></mxCell><mxCell id="11" style="edgeStyle=orthogonalEdgeStyle;rounded=0;orthogonalLoop=1;jettySize=auto;html=1;" parent="8" source="12" target="9" edge="1"><mxGeometry relative="1" as="geometry"/></mxCell><mxCell id="12" value="PostID" style="rounded=1;whiteSpace=wrap;html=1;" parent="8" vertex="1"><mxGeometry x="240" y="75" width="40" height="30" as="geometry"/></mxCell><mxCell id="13" value="" style="shape=document;whiteSpace=wrap;html=1;boundedLbl=1;" parent="8" vertex="1"><mxGeometry x="330" y="160" width="120" height="80" as="geometry"/></mxCell><mxCell id="14" value="Analyze" style="edgeStyle=orthogonalEdgeStyle;rounded=0;orthogonalLoop=1;jettySize=auto;html=1;" parent="8" source="15" target="19" edge="1"><mxGeometry relative="1" as="geometry"/></mxCell><mxCell id="15" value="" style="shape=document;whiteSpace=wrap;html=1;boundedLbl=1;" parent="8" vertex="1"><mxGeometry x="340" y="170" width="120" height="80" as="geometry"/></mxCell><mxCell id="16" value="" style="shape=document;whiteSpace=wrap;html=1;boundedLbl=1;" parent="8" vertex="1"><mxGeometry x="350" y="180" width="120" height="80" as="geometry"/></mxCell><mxCell id="17" value="Many Content" style="shape=document;whiteSpace=wrap;html=1;boundedLbl=1;" parent="8" vertex="1"><mxGeometry x="360" y="190" width="120" height="80" as="geometry"/></mxCell><mxCell id="18" style="edgeStyle=orthogonalEdgeStyle;rounded=0;orthogonalLoop=1;jettySize=auto;html=1;entryX=0.42;entryY=0.025;entryDx=0;entryDy=0;entryPerimeter=0;" parent="8" source="10" target="16" edge="1"><mxGeometry relative="1" as="geometry"/></mxCell><mxCell id="19" value="REST API:&amp;nbsp;&lt;div&gt;Get all order from Post ID&lt;/div&gt;" style="rounded=1;whiteSpace=wrap;html=1;" parent="8" vertex="1"><mxGeometry x="40" y="170" width="160" height="80" as="geometry"/></mxCell><mxCell id="20" style="edgeStyle=orthogonalEdgeStyle;rounded=0;orthogonalLoop=1;jettySize=auto;html=1;" parent="1" source="5" target="9" edge="1"><mxGeometry relative="1" as="geometry"/></mxCell><mxCell id="21" value="Return" style="edgeStyle=orthogonalEdgeStyle;rounded=0;orthogonalLoop=1;jettySize=auto;html=1;entryX=0.5;entryY=0;entryDx=0;entryDy=0;exitX=0.55;exitY=0.95;exitDx=0;exitDy=0;exitPerimeter=0;" parent="1" source="22" target="12" edge="1"><mxGeometry relative="1" as="geometry"><mxPoint x="860" y="300" as="targetPoint"/></mxGeometry></mxCell><mxCell id="22" value="Social Media&lt;div&gt;(FB, X, ...)&lt;/div&gt;" style="ellipse;shape=cloud;whiteSpace=wrap;html=1;" parent="1" vertex="1"><mxGeometry x="640" y="80" width="160" height="120" as="geometry"/></mxCell><mxCell id="23" value="Post" style="edgeStyle=orthogonalEdgeStyle;rounded=0;orthogonalLoop=1;jettySize=auto;html=1;" parent="1" source="9" target="22" edge="1"><mxGeometry x="-0.5556" relative="1" as="geometry"><mxPoint as="offset"/></mxGeometry></mxCell><mxCell id="24" value="Get data" style="edgeStyle=orthogonalEdgeStyle;rounded=0;orthogonalLoop=1;jettySize=auto;html=1;entryX=0.888;entryY=0.469;entryDx=0;entryDy=0;entryPerimeter=0;exitX=0.5;exitY=0;exitDx=0;exitDy=0;" parent="1" source="10" target="22" edge="1"><mxGeometry x="-0.1728" relative="1" as="geometry"><Array as="points"><mxPoint x="1000" y="136"/></Array><mxPoint as="offset"/></mxGeometry></mxCell><mxCell id="25" value="PostID" style="rounded=1;whiteSpace=wrap;html=1;" parent="1" vertex="1"><mxGeometry x="540" y="350" width="40" height="30" as="geometry"/></mxCell><mxCell id="26" style="edgeStyle=orthogonalEdgeStyle;rounded=0;orthogonalLoop=1;jettySize=auto;html=1;entryX=1;entryY=0.5;entryDx=0;entryDy=0;exitX=0;exitY=0.75;exitDx=0;exitDy=0;" parent="1" source="9" target="25" edge="1"><mxGeometry relative="1" as="geometry"/></mxCell><mxCell id="27" style="edgeStyle=orthogonalEdgeStyle;rounded=0;orthogonalLoop=1;jettySize=auto;html=1;entryX=1.004;entryY=0.849;entryDx=0;entryDy=0;entryPerimeter=0;" parent="1" source="25" target="5" edge="1"><mxGeometry relative="1" as="geometry"/></mxCell><mxCell id="28" style="edgeStyle=orthogonalEdgeStyle;rounded=0;orthogonalLoop=1;jettySize=auto;html=1;" parent="1" source="29" target="19" edge="1"><mxGeometry relative="1" as="geometry"/></mxCell><mxCell id="29" value="PostID" style="rounded=1;whiteSpace=wrap;html=1;" parent="1" vertex="1"><mxGeometry x="540" y="435" width="40" height="30" as="geometry"/></mxCell><mxCell id="30" style="edgeStyle=orthogonalEdgeStyle;rounded=0;orthogonalLoop=1;jettySize=auto;html=1;entryX=0.988;entryY=0.594;entryDx=0;entryDy=0;entryPerimeter=0;" parent="1" source="29" target="7" edge="1"><mxGeometry relative="1" as="geometry"/></mxCell><mxCell id="31" value="&lt;h1 style=&quot;margin-top: 0px;&quot;&gt;User Story&lt;/h1&gt;&lt;p&gt;As a LocalFoody Employee at any branch, When I create new food, I want to push new food to social media platforms as a Post. For example, the detailed content for new food, price, ... + ORDER CODE.&lt;/p&gt;&lt;p&gt;After pushing the food to post successfully, I want to get all comments to search for the Order in the pattern &quot;ORDER CODE&quot;&amp;nbsp; + &quot;quantity&quot; +&lt;span style=&quot;background-color: initial;&quot;&gt;&amp;nbsp;&quot;phone number&quot; to create a valid order.&lt;/span&gt;&lt;/p&gt;&lt;p&gt;&lt;span style=&quot;background-color: initial;&quot;&gt;Finally, I want to get all orders to handle.&lt;/span&gt;&lt;/p&gt;" style="text;html=1;whiteSpace=wrap;overflow=hidden;rounded=0;" parent="1" vertex="1"><mxGeometry x="280" y="560" width="840" height="160" as="geometry"/></mxCell><mxCell id="32" value="&lt;h1 style=&quot;margin-top: 0px;&quot;&gt;Stakeholder&lt;/h1&gt;&lt;p&gt;Client + Product Owner: a. Tran Van Tri + a Hai, (local)&lt;/p&gt;&lt;p&gt;Development Team: Doan Van Thanh Liem + Pham Ngoc Thanh&lt;/p&gt;" style="text;html=1;whiteSpace=wrap;overflow=hidden;rounded=0;" parent="1" vertex="1"><mxGeometry x="1160" y="120" width="390" height="120" as="geometry"/></mxCell><mxCell id="33" value="&lt;h1 style=&quot;margin-top: 0px;&quot;&gt;Milestone&lt;/h1&gt;&lt;p&gt;MVP: 2 Sprint (2 week)&amp;nbsp; 6-7&amp;nbsp; April.&lt;/p&gt;&lt;p&gt;&lt;/p&gt;&lt;ul&gt;&lt;li&gt;Sprint 1:&amp;nbsp;&lt;/li&gt;&lt;ul&gt;&lt;li&gt;Confirm on Post: Content text, Images, Prices, ID branch&lt;/li&gt;&lt;li&gt;Create a Post on a Social Media platform&lt;/li&gt;&lt;/ul&gt;&lt;li&gt;Sprint 2:&lt;/li&gt;&lt;ul&gt;&lt;li&gt;&lt;span style=&quot;text-align: center;&quot;&gt;Run Job to get content from the Comment Section&lt;/span&gt;&lt;br&gt;&lt;/li&gt;&lt;li&gt;&lt;span style=&quot;text-align: center;&quot;&gt;Get all order from Post ID&lt;br&gt;&lt;/span&gt;&lt;/li&gt;&lt;/ul&gt;&lt;/ul&gt;&lt;p&gt;&lt;/p&gt;&lt;p&gt;Integration + System Test:: 1 Sprint: 13&lt;span style=&quot;background-color: initial;&quot;&gt;-14&amp;nbsp; April&lt;/span&gt;&lt;span style=&quot;background-color: initial;&quot;&gt;&amp;nbsp;&lt;/span&gt;&lt;/p&gt;&lt;p&gt;&lt;/p&gt;&lt;ul&gt;&lt;li&gt;Sprint 3:&lt;/li&gt;&lt;/ul&gt;&lt;p&gt;&lt;/p&gt;&lt;p&gt;Release: 1 Sprint: 20-21 April&lt;/p&gt;" style="text;html=1;whiteSpace=wrap;overflow=hidden;rounded=0;" parent="1" vertex="1"><mxGeometry x="1160" y="240" width="490" height="320" as="geometry"/></mxCell></root></mxGraphModel></diagram><diagram id="6jyc-rFWo5R45HLKcShM" name="Page-2"><mxGraphModel dx="1148" dy="608" grid="1" gridSize="10" guides="1" tooltips="1" connect="1" arrows="1" fold="1" page="1" pageScale="1" pageWidth="1654" pageHeight="1169" math="0" shadow="0"><root><mxCell id="0"/><mxCell id="1" parent="0"/><mxCell id="FHFZyWYniMOLu8jFv2wU-1" value="LocalFoody" style="swimlane;whiteSpace=wrap;html=1;" parent="1" vertex="1"><mxGeometry x="40" y="320" width="400" height="360" as="geometry"/></mxCell><mxCell id="FHFZyWYniMOLu8jFv2wU-2" style="edgeStyle=orthogonalEdgeStyle;rounded=0;orthogonalLoop=1;jettySize=auto;html=1;" parent="FHFZyWYniMOLu8jFv2wU-1" source="FHFZyWYniMOLu8jFv2wU-3" target="FHFZyWYniMOLu8jFv2wU-4" edge="1"><mxGeometry relative="1" as="geometry"/></mxCell><mxCell id="FHFZyWYniMOLu8jFv2wU-3" value="" style="shape=umlActor;verticalLabelPosition=bottom;verticalAlign=top;html=1;outlineConnect=0;" parent="FHFZyWYniMOLu8jFv2wU-1" vertex="1"><mxGeometry x="60" y="80" width="30" height="60" as="geometry"/></mxCell><mxCell id="FHFZyWYniMOLu8jFv2wU-4" value="Product&lt;div&gt;Code for Order&lt;/div&gt;&lt;div&gt;Page ID&lt;/div&gt;&lt;div&gt;Access Token&lt;/div&gt;" style="shape=note;whiteSpace=wrap;html=1;backgroundOutline=1;darkOpacity=0.05;fillColor=#d5e8d4;strokeColor=#82b366;" parent="FHFZyWYniMOLu8jFv2wU-1" vertex="1"><mxGeometry x="200" y="60" width="160" height="100" as="geometry"/></mxCell><mxCell id="FHFZyWYniMOLu8jFv2wU-5" style="edgeStyle=orthogonalEdgeStyle;rounded=0;orthogonalLoop=1;jettySize=auto;html=1;" parent="FHFZyWYniMOLu8jFv2wU-1" source="FHFZyWYniMOLu8jFv2wU-6" target="FHFZyWYniMOLu8jFv2wU-3" edge="1"><mxGeometry relative="1" as="geometry"/></mxCell><mxCell id="FHFZyWYniMOLu8jFv2wU-6" value="Orders from Post" style="shape=note;whiteSpace=wrap;html=1;backgroundOutline=1;darkOpacity=0.05;" parent="FHFZyWYniMOLu8jFv2wU-1" vertex="1"><mxGeometry x="20" y="240" width="110" height="80" as="geometry"/></mxCell><mxCell id="LefBfbcJalrR-kf1oSkp-37" style="edgeStyle=orthogonalEdgeStyle;rounded=0;orthogonalLoop=1;jettySize=auto;html=1;" edge="1" parent="FHFZyWYniMOLu8jFv2wU-1" source="LefBfbcJalrR-kf1oSkp-36"><mxGeometry relative="1" as="geometry"><mxPoint x="130" y="280" as="targetPoint"/></mxGeometry></mxCell><mxCell id="LefBfbcJalrR-kf1oSkp-36" value="REST API:&amp;nbsp;&lt;div&gt;Get all order from Post ID&lt;/div&gt;" style="rounded=1;whiteSpace=wrap;html=1;" vertex="1" parent="FHFZyWYniMOLu8jFv2wU-1"><mxGeometry x="200" y="240" width="160" height="80" as="geometry"/></mxCell><mxCell id="FHFZyWYniMOLu8jFv2wU-7" value="SocialMedia" style="swimlane;whiteSpace=wrap;html=1;" parent="1" vertex="1"><mxGeometry x="480" y="320" width="600" height="360" as="geometry"/></mxCell><mxCell id="LefBfbcJalrR-kf1oSkp-33" style="edgeStyle=orthogonalEdgeStyle;rounded=0;orthogonalLoop=1;jettySize=auto;html=1;" edge="1" parent="FHFZyWYniMOLu8jFv2wU-7" source="FHFZyWYniMOLu8jFv2wU-8" target="FHFZyWYniMOLu8jFv2wU-9"><mxGeometry relative="1" as="geometry"/></mxCell><mxCell id="FHFZyWYniMOLu8jFv2wU-8" value="REST API:&amp;nbsp;&lt;div&gt;Create a Post on Social Media platform&lt;/div&gt;" style="rounded=1;whiteSpace=wrap;html=1;fillColor=#d5e8d4;strokeColor=#82b366;" parent="FHFZyWYniMOLu8jFv2wU-7" vertex="1"><mxGeometry x="60" y="70" width="160" height="80" as="geometry"/></mxCell><mxCell id="FHFZyWYniMOLu8jFv2wU-9" value="Run Job to get content from Comment Section" style="rounded=1;whiteSpace=wrap;html=1;fillColor=#f8cecc;strokeColor=#b85450;" parent="FHFZyWYniMOLu8jFv2wU-7" vertex="1"><mxGeometry x="380" y="70" width="160" height="80" as="geometry"/></mxCell><mxCell id="FHFZyWYniMOLu8jFv2wU-12" value="" style="shape=document;whiteSpace=wrap;html=1;boundedLbl=1;" parent="FHFZyWYniMOLu8jFv2wU-7" vertex="1"><mxGeometry x="390" y="230" width="120" height="80" as="geometry"/></mxCell><mxCell id="FHFZyWYniMOLu8jFv2wU-13" value="Analyze" style="edgeStyle=orthogonalEdgeStyle;rounded=0;orthogonalLoop=1;jettySize=auto;html=1;" parent="FHFZyWYniMOLu8jFv2wU-7" source="FHFZyWYniMOLu8jFv2wU-14" target="FHFZyWYniMOLu8jFv2wU-18" edge="1"><mxGeometry relative="1" as="geometry"/></mxCell><mxCell id="FHFZyWYniMOLu8jFv2wU-14" value="" style="shape=document;whiteSpace=wrap;html=1;boundedLbl=1;fillColor=#f8cecc;strokeColor=#b85450;" parent="FHFZyWYniMOLu8jFv2wU-7" vertex="1"><mxGeometry x="400" y="240" width="120" height="80" as="geometry"/></mxCell><mxCell id="FHFZyWYniMOLu8jFv2wU-15" value="" style="shape=document;whiteSpace=wrap;html=1;boundedLbl=1;" parent="FHFZyWYniMOLu8jFv2wU-7" vertex="1"><mxGeometry x="410" y="250" width="120" height="80" as="geometry"/></mxCell><mxCell id="FHFZyWYniMOLu8jFv2wU-16" value="Many Content" style="shape=document;whiteSpace=wrap;html=1;boundedLbl=1;fillColor=#f8cecc;strokeColor=#b85450;" parent="FHFZyWYniMOLu8jFv2wU-7" vertex="1"><mxGeometry x="420" y="260" width="120" height="80" as="geometry"/></mxCell><mxCell id="FHFZyWYniMOLu8jFv2wU-17" style="edgeStyle=orthogonalEdgeStyle;rounded=0;orthogonalLoop=1;jettySize=auto;html=1;entryX=0.42;entryY=0.025;entryDx=0;entryDy=0;entryPerimeter=0;" parent="FHFZyWYniMOLu8jFv2wU-7" source="FHFZyWYniMOLu8jFv2wU-9" target="FHFZyWYniMOLu8jFv2wU-15" edge="1"><mxGeometry relative="1" as="geometry"/></mxCell><mxCell id="FHFZyWYniMOLu8jFv2wU-18" value="WEBHOOK&lt;div&gt;Get all order from Post ID&lt;/div&gt;" style="rounded=1;whiteSpace=wrap;html=1;fillColor=#d5e8d4;strokeColor=#82b366;" parent="FHFZyWYniMOLu8jFv2wU-7" vertex="1"><mxGeometry x="60" y="240" width="160" height="80" as="geometry"/></mxCell><mxCell id="LefBfbcJalrR-kf1oSkp-39" value="" style="swimlane;startSize=0;dashed=1;strokeWidth=3;" vertex="1" parent="FHFZyWYniMOLu8jFv2wU-7"><mxGeometry x="-280" y="40" width="860" height="140" as="geometry"/></mxCell><mxCell id="LefBfbcJalrR-kf1oSkp-41" value="" style="swimlane;startSize=0;dashed=1;strokeWidth=3;" vertex="1" parent="FHFZyWYniMOLu8jFv2wU-7"><mxGeometry x="-280" y="210" width="860" height="140" as="geometry"/></mxCell><mxCell id="FHFZyWYniMOLu8jFv2wU-30" value="Facebook" style="swimlane;whiteSpace=wrap;html=1;" parent="1" vertex="1"><mxGeometry x="40" y="20" width="1040" height="260" as="geometry"/></mxCell><mxCell id="LefBfbcJalrR-kf1oSkp-31" style="edgeStyle=orthogonalEdgeStyle;rounded=0;orthogonalLoop=1;jettySize=auto;html=1;" edge="1" parent="FHFZyWYniMOLu8jFv2wU-30" source="FHFZyWYniMOLu8jFv2wU-31" target="LefBfbcJalrR-kf1oSkp-30"><mxGeometry relative="1" as="geometry"/></mxCell><mxCell id="FHFZyWYniMOLu8jFv2wU-31" value="" style="swimlane;startSize=0;dashed=1;strokeWidth=3;" parent="FHFZyWYniMOLu8jFv2wU-30" vertex="1"><mxGeometry x="80" y="40" width="560" height="200" as="geometry"/></mxCell><mxCell id="FHFZyWYniMOLu8jFv2wU-34" style="edgeStyle=orthogonalEdgeStyle;rounded=0;orthogonalLoop=1;jettySize=auto;html=1;entryX=0.5;entryY=1;entryDx=0;entryDy=0;" parent="FHFZyWYniMOLu8jFv2wU-31" source="FHFZyWYniMOLu8jFv2wU-32" target="FHFZyWYniMOLu8jFv2wU-33" edge="1"><mxGeometry relative="1" as="geometry"/></mxCell><mxCell id="LefBfbcJalrR-kf1oSkp-29" style="edgeStyle=orthogonalEdgeStyle;rounded=0;orthogonalLoop=1;jettySize=auto;html=1;" edge="1" parent="FHFZyWYniMOLu8jFv2wU-31" source="FHFZyWYniMOLu8jFv2wU-32" target="LefBfbcJalrR-kf1oSkp-28"><mxGeometry relative="1" as="geometry"/></mxCell><mxCell id="FHFZyWYniMOLu8jFv2wU-32" value="Page" style="html=1;strokeColor=none;fillColor=#0079D6;labelPosition=center;verticalLabelPosition=middle;verticalAlign=top;align=center;fontSize=12;outlineConnect=0;spacingTop=-6;fontColor=#FFFFFF;sketch=0;shape=mxgraph.sitemap.page;" parent="FHFZyWYniMOLu8jFv2wU-31" vertex="1"><mxGeometry x="40" y="110" width="120" height="70" as="geometry"/></mxCell><mxCell id="FHFZyWYniMOLu8jFv2wU-33" value="Page Access Token" style="rounded=1;whiteSpace=wrap;html=1;fillColor=#d5e8d4;strokeColor=#82b366;" parent="FHFZyWYniMOLu8jFv2wU-31" vertex="1"><mxGeometry x="40" y="20" width="120" height="40" as="geometry"/></mxCell><mxCell id="LefBfbcJalrR-kf1oSkp-28" value="" style="rounded=0;whiteSpace=wrap;html=1;fillColor=#d5e8d4;strokeColor=#82b366;" vertex="1" parent="FHFZyWYniMOLu8jFv2wU-31"><mxGeometry x="230" y="60" width="310" height="120" as="geometry"/></mxCell><mxCell id="LefBfbcJalrR-kf1oSkp-21" value="" style="shape=mxgraph.ios7.icons.user;fillColor=#ffffff;strokeColor=#253858" vertex="1" parent="FHFZyWYniMOLu8jFv2wU-31"><mxGeometry x="245" y="73" width="32" height="32" as="geometry"/></mxCell><mxCell id="LefBfbcJalrR-kf1oSkp-22" value="Jim Bunnings" style="html=1;fillColor=none;strokeColor=none;fontSize=12;align=left;fontColor=#000000;whiteSpace=wrap" vertex="1" parent="FHFZyWYniMOLu8jFv2wU-31"><mxGeometry x="285" y="79" width="90" height="20" as="geometry"/></mxCell><mxCell id="LefBfbcJalrR-kf1oSkp-23" value="AUTHOR" style="rounded=1;arcSize=5;fillColor=#F2F3F5;strokeColor=none;fontColor=#596780;align=center;verticalAlign=middle;whiteSpace=wrap;fontSize=10;fontStyle=1;html=1" vertex="1" parent="FHFZyWYniMOLu8jFv2wU-31"><mxGeometry x="370" y="79" width="55" height="20" as="geometry"/></mxCell><mxCell id="LefBfbcJalrR-kf1oSkp-24" value="30, August 2016" style="html=1;fillColor=none;strokeColor=none;fontSize=12;align=left;fontColor=#596780;whiteSpace=wrap" vertex="1" parent="FHFZyWYniMOLu8jFv2wU-31"><mxGeometry x="440" y="79" width="110" height="20" as="geometry"/></mxCell><mxCell id="LefBfbcJalrR-kf1oSkp-27" value="Reply &amp;#8226; Edit &amp;#8226; Delete &amp;#8226; Like" style="html=1;fillColor=none;strokeColor=none;fontSize=12;align=left;fontColor=#596780;whiteSpace=wrap" vertex="1" parent="FHFZyWYniMOLu8jFv2wU-31"><mxGeometry x="285" y="140" width="240" height="20" as="geometry"/></mxCell><mxCell id="LefBfbcJalrR-kf1oSkp-26" value="[PRODUCT_CODE] [QUANTITY] [CONTACT]" style="html=1;fillColor=none;strokeColor=none;fontSize=12;align=left;fontColor=#000000;whiteSpace=wrap;verticalAlign=top" vertex="1" parent="FHFZyWYniMOLu8jFv2wU-31"><mxGeometry x="285" y="105" width="255" height="35" as="geometry"/></mxCell><mxCell id="LefBfbcJalrR-kf1oSkp-30" value="Facebook Graph API" style="rounded=1;whiteSpace=wrap;html=1;fillColor=#d5e8d4;strokeColor=#82b366;" vertex="1" parent="FHFZyWYniMOLu8jFv2wU-30"><mxGeometry x="800" y="110" width="160" height="60" as="geometry"/></mxCell><mxCell id="LefBfbcJalrR-kf1oSkp-1" style="edgeStyle=orthogonalEdgeStyle;rounded=0;orthogonalLoop=1;jettySize=auto;html=1;" edge="1" parent="1" source="FHFZyWYniMOLu8jFv2wU-4" target="FHFZyWYniMOLu8jFv2wU-8"><mxGeometry relative="1" as="geometry"/></mxCell><mxCell id="LefBfbcJalrR-kf1oSkp-2" style="edgeStyle=orthogonalEdgeStyle;rounded=0;orthogonalLoop=1;jettySize=auto;html=1;exitX=0;exitY=0.5;exitDx=0;exitDy=0;" edge="1" parent="1" source="FHFZyWYniMOLu8jFv2wU-33" target="FHFZyWYniMOLu8jFv2wU-3"><mxGeometry relative="1" as="geometry"><Array as="points"><mxPoint x="80" y="100"/><mxPoint x="80" y="410"/></Array></mxGeometry></mxCell><mxCell id="LefBfbcJalrR-kf1oSkp-32" style="edgeStyle=orthogonalEdgeStyle;rounded=0;orthogonalLoop=1;jettySize=auto;html=1;entryX=0.5;entryY=1;entryDx=0;entryDy=0;exitX=0.5;exitY=0;exitDx=0;exitDy=0;" edge="1" parent="1" source="FHFZyWYniMOLu8jFv2wU-8" target="LefBfbcJalrR-kf1oSkp-30"><mxGeometry relative="1" as="geometry"><Array as="points"><mxPoint x="620" y="300"/><mxPoint x="920" y="300"/></Array></mxGeometry></mxCell><mxCell id="LefBfbcJalrR-kf1oSkp-38" style="edgeStyle=orthogonalEdgeStyle;rounded=0;orthogonalLoop=1;jettySize=auto;html=1;entryX=1;entryY=0.5;entryDx=0;entryDy=0;" edge="1" parent="1" source="FHFZyWYniMOLu8jFv2wU-18" target="LefBfbcJalrR-kf1oSkp-36"><mxGeometry relative="1" as="geometry"/></mxCell></root></mxGraphModel></diagram></mxfile>